<svg width="173" height="219" viewBox="0 0 173 219" fill="none" xmlns="http://www.w3.org/2000/svg">
<path fill-rule="evenodd" clip-rule="evenodd" d="M85.6855 27.0047C88.9221 32.5161 94.7474 45.5824 93.1191 48.304L79.2984 52.0192C79.2904 51.9951 79.2825 51.971 79.2746 51.947C74.0005 52.7563 68.8548 49.4783 67.4444 44.1974L64.84 34.446C63.3265 28.7794 66.6871 22.9525 72.346 21.4313L73.2991 21.175C78.3746 19.8107 83.5751 22.3733 85.6855 27.0047Z" fill="black"/>
<path fill-rule="evenodd" clip-rule="evenodd" d="M72.3302 40.9517C69.4501 38.9842 67.1259 36.2489 66.4363 32.6691C64.4492 22.3549 79.247 20.7629 83.3741 25.1287C87.5011 29.4945 90.6333 42.5412 87.3064 44.4142C85.9797 45.1612 82.708 45.0848 79.1276 44.0688L84.6975 57.1484L73.2549 60.2248L72.3302 40.9517Z" fill="#FFDBBD"/>
<path fill-rule="evenodd" clip-rule="evenodd" d="M74.9671 38.4051C76.9945 43.8816 78.497 50.3542 77.3332 52.2993L63.5131 56.0144C59.1966 42.943 68.0118 46.0845 64.6727 33.5824C65.0165 33.0078 65.336 32.4446 65.6672 31.9439L65.5537 31.5804C66.6481 26.0745 69.0348 22.8271 72.7139 21.8381C78.2324 20.3546 80.655 22.435 82.716 24.2001C82.6157 28.2751 78.4614 29.992 75.266 33.3743C74.7181 33.132 74.0851 33.0686 73.4591 33.2369C72.0115 33.6261 71.1491 35.1062 71.5328 36.543C71.9165 37.9797 73.4011 38.8289 74.8486 38.4398C74.8886 38.4291 74.928 38.4175 74.9671 38.4051Z" fill="black"/>
<path fill-rule="evenodd" clip-rule="evenodd" d="M60.7842 148.415C72.6146 151.719 82.8215 153.37 91.4049 153.37C99.9883 153.37 107.961 150.827 115.323 145.74C103.746 142.349 94.2115 140.654 86.7201 140.654C79.2287 140.654 70.5834 143.241 60.7842 148.415Z" fill="#1F28CF"/>
<path fill-rule="evenodd" clip-rule="evenodd" d="M101.646 158.132C101.532 157.96 101.436 157.774 101.36 157.573C99.7783 153.398 74.4492 108.359 71.9258 100.125H100.443C102.361 106.386 110.997 145.674 112.212 153.512C116.046 165.877 123.941 205.921 124.949 208.695C126.009 211.613 120.044 214.654 118.454 211.066C115.925 205.357 109.898 189.561 107.214 179.916C104.699 170.874 102.65 162.74 101.646 158.132Z" fill="#FFDBBD"/>
<path fill-rule="evenodd" clip-rule="evenodd" d="M78.3155 163.63C66.7354 166.552 24.378 171.834 21.4712 172.663C18.4811 173.515 15.8593 167.362 19.5553 166.029C25.4362 163.909 41.6408 159.009 51.4657 157.009C59.3683 155.401 66.5795 154.088 71.4209 153.32C71.0107 139.743 69.1358 107.162 70.3647 100.125H95.597C94.4186 106.873 84.4568 156.11 82.6052 161.038C82.0176 162.798 80.2644 163.575 78.3155 163.63Z" fill="#FFDBBD"/>
<path fill-rule="evenodd" clip-rule="evenodd" d="M19.7908 164.348C18.2437 164.061 17.1099 163.981 16.3893 164.108C15.513 164.263 14.2598 164.636 12.6299 165.225C12.8088 166.244 14.4166 175.393 17.4533 192.674C19.9334 192.97 21.1324 192.334 21.0501 190.764C20.9678 189.194 20.913 187.887 20.8857 186.844L24.3235 173.081C24.3896 172.816 24.2289 172.548 23.9645 172.482C23.96 172.481 23.9555 172.48 23.9509 172.479L21.8203 172.01C20.9074 170.705 20.3729 169.608 20.2166 168.718C20.0896 167.995 20.2056 166.946 20.5648 165.569L20.5648 165.569C20.7026 165.041 20.3869 164.501 19.8595 164.364C19.8368 164.358 19.8139 164.353 19.7908 164.348Z" fill="#E4E4E4"/>
<path fill-rule="evenodd" clip-rule="evenodd" d="M116.644 210.65C116.092 212.126 115.816 213.23 115.816 213.963C115.816 214.854 115.965 216.154 116.261 217.864C117.292 217.864 126.564 217.864 144.076 217.864C144.798 215.469 144.381 214.177 142.824 213.986C141.266 213.795 139.973 213.622 138.943 213.468L126.015 207.693C125.766 207.581 125.474 207.693 125.364 207.943C125.362 207.947 125.36 207.951 125.358 207.956L124.527 209.976C123.085 210.65 121.914 210.987 121.013 210.987C120.28 210.987 119.269 210.691 117.979 210.098L117.979 210.098C117.483 209.87 116.898 210.088 116.671 210.584C116.661 210.606 116.652 210.628 116.644 210.65Z" fill="#E4E4E4"/>
<path fill-rule="evenodd" clip-rule="evenodd" d="M70.4465 100.125C81.5655 96.9495 92.0861 96.9495 102.008 100.125C105.46 115.848 113.848 122.089 115.323 146.195C98.5562 154.512 77.8438 140.264 60.5835 148.374C55.652 137.03 62.5561 109.708 70.4465 100.125Z" fill="#2B44FF"/>
<path fill-rule="evenodd" clip-rule="evenodd" d="M96.747 67.5699L111.991 55.3831C114.212 51.5687 116.521 48.5028 118.92 46.1853C119.691 45.6922 121.108 45.2255 120.171 47.8716C119.234 50.5177 118.367 53.3428 119.19 53.9613C120.013 54.5798 121.559 53.2388 122.602 54.3238C123.297 55.0472 120.573 56.8662 114.431 59.7809L104.144 73.1282L96.747 67.5699ZM124.518 70.662L131.212 65.2966C131.559 61.1719 132.453 58.9694 133.894 58.6889C134.914 57.9776 133.855 63.2993 135.884 62.4951C137.913 61.6908 142.381 56.9742 143.402 57.5906C144.912 58.5026 144.362 62.2212 143.293 64.2116C141.295 67.9317 139.363 69.425 134.357 71.8183C131.741 73.0696 129.035 75.1283 126.242 77.9944L124.518 70.662Z" fill="#FFDBBD"/>
<path fill-rule="evenodd" clip-rule="evenodd" d="M88.1818 66.9677C94.076 65.8604 101.732 63.2237 109.2 56.4207L113.789 63.1712C109 69.9298 101.678 76.0823 94.5179 77.144C88.875 77.9806 84.8158 71.7185 88.1818 66.9677Z" fill="#2026A2"/>
<path fill-rule="evenodd" clip-rule="evenodd" d="M98.205 77.3263C104.749 77.7751 114.941 74.0766 128.78 66.2308C133.767 73.131 136.405 78.2127 136.693 81.4759C125.19 90.3077 114.855 95.1668 105.949 96.9428C107.162 102.179 107.4 107.324 106.038 112.305C103.239 122.544 75.5904 118.413 67.1135 121.689C58.4891 104.867 67.849 95.754 65.857 84.3662C63.6756 71.8953 70.3496 50.9246 71.8277 50.663L85.307 48.2777C87.7238 57.669 93.3112 67.5016 98.205 77.3263Z" fill="#1F28CF"/>
<path d="M104.388 43.6525L113.311 26.0892C113.561 25.5969 114.163 25.4014 114.655 25.6527L153.665 45.5876L144.289 64.0423L104.388 43.6525Z" fill="#00739B"/>
<path d="M104.388 43.6525L111.738 29.1848L116.075 31.4011L121.464 29.1326L153.665 45.5876L144.289 64.0423L104.388 43.6525Z" fill="#1EA67E"/>
<path d="M105.316 48.543C103.84 47.7893 103.253 45.9808 104.003 44.5038L104.38 43.7624L146.022 65.036L144.286 68.4519L105.316 48.543Z" fill="#114B5F"/>
<path d="M117.199 47.6253C115.724 46.8714 115.136 45.0628 115.887 43.5857L121.015 33.4937L124.167 35.1044L117.68 47.871L117.199 47.6253Z" fill="#114B5F"/>
<path d="M122.798 50.4848C121.323 49.7309 120.735 47.9223 121.485 46.4452L126.613 36.3532L129.765 37.9639L123.279 50.7305L122.798 50.4848Z" fill="#114B5F"/>
<path d="M144.639 68.5345C143.479 67.9415 143.016 66.5187 143.607 65.3566L153.658 45.5744V45.5744C155.98 46.7605 156.905 49.6062 155.724 51.9303L147.81 67.5043C147.22 68.6663 145.8 69.1276 144.639 68.5345V68.5345Z" fill="#00739B"/>
</svg>
