<svg width="333" height="255" viewBox="0 0 333 255" fill="none" xmlns="http://www.w3.org/2000/svg">
<path fill-rule="evenodd" clip-rule="evenodd" d="M20.5205 0.599365C9.47481 0.599365 0.520508 9.55367 0.520508 20.5994V27.4079C0.520508 37.5297 8.72581 45.735 18.8476 45.735V45.735C28.9693 45.735 37.1746 53.9403 37.1746 64.062V244.449C37.1746 250.276 41.8985 255 47.7258 255V255C53.553 255 58.277 250.276 58.277 244.449V145.735C58.277 90.5064 103.048 45.735 158.277 45.735H175.163C230.391 45.735 275.163 90.5065 275.163 145.735V244.449C275.163 250.276 279.886 255 285.714 255V255C291.541 255 296.265 250.276 296.265 244.449V64.0439C296.265 53.9321 304.462 45.735 314.574 45.735V45.735C324.686 45.735 332.883 37.5378 332.883 27.4261V20.5994C332.883 9.55367 323.928 0.599365 312.883 0.599365H20.5205Z" fill="#114B5F"/>
<path d="M115.102 16.1263H118.342V27.4863H125.362V30.1263H115.102V16.1263ZM128.172 16.1263H131.412V30.1263H128.172V16.1263ZM146.015 22.8463C146.815 23.0997 147.441 23.5263 147.895 24.1263C148.348 24.713 148.575 25.4397 148.575 26.3063C148.575 27.533 148.095 28.4797 147.135 29.1463C146.188 29.7997 144.801 30.1263 142.975 30.1263H135.735V16.1263H142.575C144.281 16.1263 145.588 16.453 146.495 17.1063C147.415 17.7597 147.875 18.6463 147.875 19.7663C147.875 20.4463 147.708 21.053 147.375 21.5863C147.055 22.1197 146.601 22.5397 146.015 22.8463ZM138.955 18.5663V21.8663H142.175C142.975 21.8663 143.581 21.7263 143.995 21.4463C144.408 21.1663 144.615 20.753 144.615 20.2063C144.615 19.6597 144.408 19.253 143.995 18.9863C143.581 18.7063 142.975 18.5663 142.175 18.5663H138.955ZM142.735 27.6863C143.588 27.6863 144.228 27.5463 144.655 27.2663C145.095 26.9863 145.315 26.553 145.315 25.9663C145.315 24.8063 144.455 24.2263 142.735 24.2263H138.955V27.6863H142.735ZM160.948 30.1263L158.248 26.2263H158.088H155.268V30.1263H152.028V16.1263H158.088C159.328 16.1263 160.401 16.333 161.308 16.7463C162.228 17.1597 162.934 17.7463 163.428 18.5063C163.921 19.2663 164.168 20.1663 164.168 21.2063C164.168 22.2463 163.914 23.1463 163.408 23.9063C162.914 24.653 162.208 25.2263 161.288 25.6263L164.428 30.1263H160.948ZM160.888 21.2063C160.888 20.4197 160.634 19.8197 160.128 19.4063C159.621 18.9797 158.881 18.7663 157.908 18.7663H155.268V23.6463H157.908C158.881 23.6463 159.621 23.433 160.128 23.0063C160.634 22.5797 160.888 21.9797 160.888 21.2063ZM178.575 27.5263V30.1263H167.735V16.1263H178.315V18.7263H170.955V21.7663H177.455V24.2863H170.955V27.5263H178.575ZM191.073 30.1263L188.373 26.2263H188.213H185.393V30.1263H182.153V16.1263H188.213C189.453 16.1263 190.526 16.333 191.433 16.7463C192.353 17.1597 193.059 17.7463 193.553 18.5063C194.046 19.2663 194.293 20.1663 194.293 21.2063C194.293 22.2463 194.039 23.1463 193.533 23.9063C193.039 24.653 192.333 25.2263 191.413 25.6263L194.553 30.1263H191.073ZM191.013 21.2063C191.013 20.4197 190.759 19.8197 190.253 19.4063C189.746 18.9797 189.006 18.7663 188.033 18.7663H185.393V23.6463H188.033C189.006 23.6463 189.746 23.433 190.253 23.0063C190.759 22.5797 191.013 21.9797 191.013 21.2063ZM197.86 16.1263H201.1V30.1263H197.86V16.1263ZM214.642 27.1263H208.142L206.902 30.1263H203.582L209.822 16.1263H213.022L219.282 30.1263H215.882L214.642 27.1263ZM213.622 24.6663L211.402 19.3063L209.182 24.6663H213.622Z" fill="white"/>
<g clip-path="url(#clip0)">
<path d="M57.5933 65.735C57.5933 54.6893 66.5476 45.735 77.5933 45.735H255.749C266.794 45.735 275.749 54.6893 275.749 65.735V241.323H57.5933V65.735Z" fill="#1EA67E"/>
<rect x="136.335" y="31.735" width="13" height="432" rx="6.5" transform="rotate(45 136.335 31.735)" fill="white"/>
<rect x="169.974" y="31.735" width="13" height="432" rx="6.5" transform="rotate(45 169.974 31.735)" fill="white"/>
<rect x="203.613" y="31.735" width="13" height="432" rx="6.5" transform="rotate(45 203.613 31.735)" fill="white"/>
<rect x="237.251" y="31.735" width="13" height="432" rx="6.5" transform="rotate(45 237.251 31.735)" fill="white"/>
<rect x="270.89" y="31.735" width="13" height="432" rx="6.5" transform="rotate(45 270.89 31.735)" fill="white"/>
<rect x="304.529" y="31.735" width="13" height="432" rx="6.5" transform="rotate(45 304.529 31.735)" fill="white"/>
<rect x="338.167" y="31.735" width="13" height="432" rx="6.5" transform="rotate(45 338.167 31.735)" fill="white"/>
<rect x="371.806" y="31.735" width="13" height="432" rx="6.5" transform="rotate(45 371.806 31.735)" fill="white"/>
<rect x="405.445" y="31.735" width="13" height="432" rx="6.5" transform="rotate(45 405.445 31.735)" fill="white"/>
<rect x="439.083" y="31.735" width="13" height="432" rx="6.5" transform="rotate(45 439.083 31.735)" fill="white"/>
<rect x="472.722" y="31.735" width="13" height="432" rx="6.5" transform="rotate(45 472.722 31.735)" fill="white"/>
<rect x="506.361" y="31.735" width="13" height="432" rx="6.5" transform="rotate(45 506.361 31.735)" fill="white"/>
<rect x="540" y="31.735" width="13" height="432" rx="6.5" transform="rotate(45 540 31.735)" fill="white"/>
<rect x="573.638" y="31.735" width="13" height="432" rx="6.5" transform="rotate(45 573.638 31.735)" fill="white"/>
<rect x="102.697" y="31.735" width="13" height="84.9989" rx="6.5" transform="rotate(45 102.697 31.735)" fill="white"/>
</g>
<path d="M184.742 151.219C184.742 140.173 193.696 131.219 204.742 131.219H233.129C244.175 131.219 253.129 140.173 253.129 151.219V241.323H184.742V151.219Z" fill="#114B5F"/>
<rect x="235.349" y="177.038" width="6.83873" height="23.2517" rx="3.41936" fill="white"/>
<defs>
<clipPath id="clip0">
<path d="M57.5933 65.735C57.5933 54.6893 66.5476 45.735 77.5933 45.735H255.749C266.794 45.735 275.749 54.6893 275.749 65.735V241.323H57.5933V65.735Z" fill="white"/>
</clipPath>
</defs>
</svg>
