<svg width="364" height="222" viewBox="0 0 364 222" fill="none" xmlns="http://www.w3.org/2000/svg">
<path fill-rule="evenodd" clip-rule="evenodd" d="M124.462 182.735C126.727 190.908 129.725 209.649 126.704 212.574L107.704 212.572C107.702 212.538 107.7 212.504 107.698 212.471C100.656 211.691 95.1778 205.72 95.1768 198.471L95.1751 185.085C95.1741 177.307 101.48 171.001 109.26 171.002L110.57 171.003C117.548 171.003 123.341 176.077 124.462 182.735Z" fill="black"/>
<path fill-rule="evenodd" clip-rule="evenodd" d="M102.557 195.994C99.5375 192.482 97.4934 188.177 97.8337 183.355C98.8142 169.459 118.331 172.52 122.129 179.534C125.927 186.548 125.48 204.338 120.574 205.59C118.617 206.09 114.449 204.864 110.206 202.329L112.873 221.001L97.1501 220.998L102.557 195.994Z" fill="#FFDBBD"/>
<path fill-rule="evenodd" clip-rule="evenodd" d="M106.805 193.646C107.53 201.359 107.241 210.166 105.082 212.256L86.082 212.254C85.021 194.026 95.2532 201.086 95.251 183.924C95.8888 183.306 96.4915 182.695 97.0878 182.168L97.0667 181.663C100.356 174.988 104.53 171.651 109.588 171.652C117.175 171.653 119.57 175.152 121.609 178.122C120.085 183.307 114.168 184.075 108.911 187.306C108.291 186.807 107.501 186.508 106.64 186.508C104.65 186.507 103.037 188.106 103.037 190.078C103.037 192.051 104.651 193.65 106.641 193.65C106.696 193.65 106.751 193.649 106.805 193.646Z" fill="black"/>
<path fill-rule="evenodd" clip-rule="evenodd" d="M110.812 26.2285C107.942 22.8898 106 18.7981 106.325 14.2133C107.26 1.00316 125.813 3.90923 129.422 10.5766C133.031 17.2439 132.602 34.1562 127.938 35.3479C126.078 35.8231 122.115 34.659 118.082 32.2496L120.614 50H105.667L110.812 26.2285Z" fill="#B28B67"/>
<path fill-rule="evenodd" clip-rule="evenodd" d="M130.833 13.5701C130.685 12.7059 130.323 11.7462 130.031 10.9285C129.655 9.8745 129.085 8.92415 128.458 8.02848C127.278 6.34219 125.862 4.81943 124.299 3.55559C121.443 1.24706 117.809 -0.0845147 114.234 0.347915C112.43 0.566232 110.678 1.24853 109.187 2.38418C107.839 3.41025 106.544 4.92071 104.799 5.02923C102.901 5.14723 101.161 3.48671 99.6388 2.46116C97.9224 1.305 96.0965 0.462541 94.0905 0.135065C90.7299 -0.413359 87.5729 0.711988 85.2569 3.44475C82.7923 6.35281 81.0007 10.6175 82.6192 14.4706C82.9201 15.1869 83.3071 15.7907 83.8626 16.2912C84.372 16.7501 85.15 17.2384 85.3566 17.9717C85.576 18.7512 84.9206 19.7568 84.6665 20.4601C84.3024 21.4678 84.0035 22.5255 84.1098 23.6208C84.2844 25.4195 85.4248 27.1365 86.6291 28.3188C87.8545 29.5219 89.3628 30.2117 90.9738 30.5297C92.0495 30.7421 93.1488 30.8592 94.2421 30.7795C94.7848 30.74 95.2637 30.5905 95.7895 30.4717C96.3009 30.3561 96.5867 30.4907 97.0205 30.7687C99.0359 32.0601 101.203 32.5597 103.53 32.3677C105.494 32.2055 107.758 31.7337 109.36 30.4C111.139 28.9186 111.104 26.876 110.685 24.6935C111.129 24.9114 112.356 25.0463 111.623 24.1778C111.332 23.8338 110.783 23.6938 110.411 23.4915C109.976 23.2559 109.536 22.9515 109.199 22.5672C107.838 21.0157 109.212 17.858 110.923 17.3377C113.464 16.5646 114.033 20.1268 115.847 21.0483C116.89 21.5781 117.981 20.8539 118.763 20.1145C119.81 19.124 120.523 17.8118 121.139 16.4764C121.647 15.3767 122.119 14.2616 122.636 13.1674C122.877 12.6564 123.713 11.2119 123.294 10.6341C125.114 10.2743 127.141 11.024 128.709 12.0072C129.357 12.4137 129.851 12.8618 130.196 13.5793C130.27 13.733 130.432 14.1901 130.634 14.2088C131.011 14.2437 130.87 13.7873 130.833 13.5701Z" fill="#191847"/>
<path d="M218.102 31.1445C218.102 26.4375 214.039 24.8555 210.445 23.4687C207.672 22.3945 205.289 21.4766 205.289 19.4062C205.289 17.6289 207.008 16.3984 209.488 16.3984C212.418 16.3984 214.781 18.4883 214.801 18.5078C214.957 18.625 215.133 18.6836 215.328 18.6445C215.523 18.625 215.68 18.5078 215.777 18.332L217.359 15.4805C217.496 15.2461 217.457 14.9531 217.262 14.7383C217.184 14.6602 215.074 12.5117 211.109 12.0625V8.625C211.109 8.27344 210.836 8 210.484 8H207.848C207.516 8 207.223 8.27344 207.223 8.625V12.1406C203.141 12.9219 200.328 15.8906 200.328 19.4844C200.328 24.3867 204.703 26.1445 208.219 27.5312C210.855 28.5859 213.16 29.5039 213.16 31.3789C213.16 33.5859 211.09 34.6016 209.176 34.6016C205.719 34.6016 202.984 31.9844 202.945 31.9648C202.828 31.8281 202.652 31.7695 202.477 31.7891C202.301 31.8086 202.125 31.8867 202.027 32.0234L200.016 34.6602C199.84 34.8945 199.859 35.2266 200.055 35.4609C200.152 35.5781 202.652 38.3125 207.223 38.957V42.375C207.223 42.7266 207.516 43 207.848 43H210.484C210.836 43 211.109 42.7266 211.109 42.375V38.957C215.25 38.2734 218.102 35.1289 218.102 31.1445Z" fill="#1EA67E"/>
<path d="M340.964 23.704H349.322V26.686H340.964V35.338H337.94V26.686H329.582V23.704H337.94V15.01H340.964V23.704Z" fill="black"/>
<path d="M218.102 200.145C218.102 195.437 214.039 193.855 210.445 192.469C207.672 191.395 205.289 190.477 205.289 188.406C205.289 186.629 207.008 185.398 209.488 185.398C212.418 185.398 214.781 187.488 214.801 187.508C214.957 187.625 215.133 187.684 215.328 187.645C215.523 187.625 215.68 187.508 215.777 187.332L217.359 184.48C217.496 184.246 217.457 183.953 217.262 183.738C217.184 183.66 215.074 181.512 211.109 181.062V177.625C211.109 177.273 210.836 177 210.484 177H207.848C207.516 177 207.223 177.273 207.223 177.625V181.141C203.141 181.922 200.328 184.891 200.328 188.484C200.328 193.387 204.703 195.145 208.219 196.531C210.855 197.586 213.16 198.504 213.16 200.379C213.16 202.586 211.09 203.602 209.176 203.602C205.719 203.602 202.984 200.984 202.945 200.965C202.828 200.828 202.652 200.77 202.477 200.789C202.301 200.809 202.125 200.887 202.027 201.023L200.016 203.66C199.84 203.895 199.859 204.227 200.055 204.461C200.152 204.578 202.652 207.313 207.223 207.957V211.375C207.223 211.727 207.516 212 207.848 212H210.484C210.836 212 211.109 211.727 211.109 211.375V207.957C215.25 207.273 218.102 204.129 218.102 200.145Z" fill="#B00020"/>
<path d="M160.2 191.86H178.54V196.2H160.2V191.86Z" fill="#B00020"/>
<path d="M254.102 200.145C254.102 195.437 250.039 193.855 246.445 192.469C243.672 191.395 241.289 190.477 241.289 188.406C241.289 186.629 243.008 185.398 245.488 185.398C248.418 185.398 250.781 187.488 250.801 187.508C250.957 187.625 251.133 187.684 251.328 187.645C251.523 187.625 251.68 187.508 251.777 187.332L253.359 184.48C253.496 184.246 253.457 183.953 253.262 183.738C253.184 183.66 251.074 181.512 247.109 181.062V177.625C247.109 177.273 246.836 177 246.484 177H243.848C243.516 177 243.223 177.273 243.223 177.625V181.141C239.141 181.922 236.328 184.891 236.328 188.484C236.328 193.387 240.703 195.145 244.219 196.531C246.855 197.586 249.16 198.504 249.16 200.379C249.16 202.586 247.09 203.602 245.176 203.602C241.719 203.602 238.984 200.984 238.945 200.965C238.828 200.828 238.652 200.77 238.477 200.789C238.301 200.809 238.125 200.887 238.027 201.023L236.016 203.66C235.84 203.895 235.859 204.227 236.055 204.461C236.152 204.578 238.652 207.313 243.223 207.957V211.375C243.223 211.727 243.516 212 243.848 212H246.484C246.836 212 247.109 211.727 247.109 211.375V207.957C251.25 207.273 254.102 204.129 254.102 200.145Z" fill="#B00020"/>
<path d="M290.102 200.145C290.102 195.437 286.039 193.855 282.445 192.469C279.672 191.395 277.289 190.477 277.289 188.406C277.289 186.629 279.008 185.398 281.488 185.398C284.418 185.398 286.781 187.488 286.801 187.508C286.957 187.625 287.133 187.684 287.328 187.645C287.523 187.625 287.68 187.508 287.777 187.332L289.359 184.48C289.496 184.246 289.457 183.953 289.262 183.738C289.184 183.66 287.074 181.512 283.109 181.062V177.625C283.109 177.273 282.836 177 282.484 177H279.848C279.516 177 279.223 177.273 279.223 177.625V181.141C275.141 181.922 272.328 184.891 272.328 188.484C272.328 193.387 276.703 195.145 280.219 196.531C282.855 197.586 285.16 198.504 285.16 200.379C285.16 202.586 283.09 203.602 281.176 203.602C277.719 203.602 274.984 200.984 274.945 200.965C274.828 200.828 274.652 200.77 274.477 200.789C274.301 200.809 274.125 200.887 274.027 201.023L272.016 203.66C271.84 203.895 271.859 204.227 272.055 204.461C272.152 204.578 274.652 207.313 279.223 207.957V211.375C279.223 211.727 279.516 212 279.848 212H282.484C282.836 212 283.109 211.727 283.109 211.375V207.957C287.25 207.273 290.102 204.129 290.102 200.145Z" fill="#B00020"/>
<path d="M0 96.2454C0 85.0642 9.06418 76 20.2454 76H111.755C122.936 76 132 85.0642 132 96.2454V96.2454C132 107.427 122.936 116.491 111.755 116.491H20.2454C9.06418 116.491 0 107.427 0 96.2454V96.2454Z" fill="#114B5F"/>
<path d="M24.6749 90.8H27.2669V99.888H32.8829V102H24.6749V90.8ZM35.1311 90.8H37.7231V102H35.1311V90.8ZM49.4051 96.176C50.0451 96.3787 50.5465 96.72 50.9091 97.2C51.2718 97.6693 51.4531 98.2507 51.4531 98.944C51.4531 99.9253 51.0691 100.683 50.3011 101.216C49.5438 101.739 48.4345 102 46.9731 102H41.1811V90.8H46.6531C48.0185 90.8 49.0638 91.0613 49.7891 91.584C50.5251 92.1067 50.8931 92.816 50.8931 93.712C50.8931 94.256 50.7598 94.7413 50.4931 95.168C50.2371 95.5947 49.8745 95.9307 49.4051 96.176ZM43.7571 92.752V95.392H46.3331C46.9731 95.392 47.4585 95.28 47.7891 95.056C48.1198 94.832 48.2851 94.5013 48.2851 94.064C48.2851 93.6267 48.1198 93.3013 47.7891 93.088C47.4585 92.864 46.9731 92.752 46.3331 92.752H43.7571ZM46.7811 100.048C47.4638 100.048 47.9758 99.936 48.3171 99.712C48.6691 99.488 48.8451 99.1413 48.8451 98.672C48.8451 97.744 48.1571 97.28 46.7811 97.28H43.7571V100.048H46.7811ZM61.3515 102L59.1915 98.88H59.0635H56.8075V102H54.2155V90.8H59.0635C60.0555 90.8 60.9142 90.9653 61.6395 91.296C62.3755 91.6267 62.9408 92.096 63.3355 92.704C63.7302 93.312 63.9275 94.032 63.9275 94.864C63.9275 95.696 63.7248 96.416 63.3195 97.024C62.9248 97.6213 62.3595 98.08 61.6235 98.4L64.1355 102H61.3515ZM61.3035 94.864C61.3035 94.2347 61.1008 93.7547 60.6955 93.424C60.2902 93.0827 59.6982 92.912 58.9195 92.912H56.8075V96.816H58.9195C59.6982 96.816 60.2902 96.6453 60.6955 96.304C61.1008 95.9627 61.3035 95.4827 61.3035 94.864ZM75.4531 99.92V102H66.7811V90.8H75.2451V92.88H69.3571V95.312H74.5571V97.328H69.3571V99.92H75.4531ZM85.4515 102L83.2915 98.88H83.1635H80.9075V102H78.3155V90.8H83.1635C84.1555 90.8 85.0142 90.9653 85.7395 91.296C86.4755 91.6267 87.0408 92.096 87.4355 92.704C87.8302 93.312 88.0275 94.032 88.0275 94.864C88.0275 95.696 87.8248 96.416 87.4195 97.024C87.0248 97.6213 86.4595 98.08 85.7235 98.4L88.2355 102H85.4515ZM85.4035 94.864C85.4035 94.2347 85.2008 93.7547 84.7955 93.424C84.3902 93.0827 83.7982 92.912 83.0195 92.912H80.9075V96.816H83.0195C83.7982 96.816 84.3902 96.6453 84.7955 96.304C85.2008 95.9627 85.4035 95.4827 85.4035 94.864ZM90.8811 90.8H93.4731V102H90.8811V90.8ZM104.307 99.6H99.1071L98.1151 102H95.4591L100.451 90.8H103.011L108.019 102H105.299L104.307 99.6ZM103.491 97.632L101.715 93.344L99.9391 97.632H103.491Z" fill="white"/>
<path d="M218.102 102.145C218.102 97.4375 214.039 95.8555 210.445 94.4687C207.672 93.3945 205.289 92.4766 205.289 90.4062C205.289 88.6289 207.008 87.3984 209.488 87.3984C212.418 87.3984 214.781 89.4883 214.801 89.5078C214.957 89.625 215.133 89.6836 215.328 89.6445C215.523 89.625 215.68 89.5078 215.777 89.332L217.359 86.4805C217.496 86.2461 217.457 85.9531 217.262 85.7383C217.184 85.6602 215.074 83.5117 211.109 83.0625V79.625C211.109 79.2734 210.836 79 210.484 79H207.848C207.516 79 207.223 79.2734 207.223 79.625V83.1406C203.141 83.9219 200.328 86.8906 200.328 90.4844C200.328 95.3867 204.703 97.1445 208.219 98.5312C210.855 99.5859 213.16 100.504 213.16 102.379C213.16 104.586 211.09 105.602 209.176 105.602C205.719 105.602 202.984 102.984 202.945 102.965C202.828 102.828 202.652 102.77 202.477 102.789C202.301 102.809 202.125 102.887 202.027 103.023L200.016 105.66C199.84 105.895 199.859 106.227 200.055 106.461C200.152 106.578 202.652 109.313 207.223 109.957V113.375C207.223 113.727 207.516 114 207.848 114H210.484C210.836 114 211.109 113.727 211.109 113.375V109.957C215.25 109.273 218.102 106.129 218.102 102.145Z" fill="#1EA67E"/>
<path d="M254.102 102.145C254.102 97.4375 250.039 95.8555 246.445 94.4687C243.672 93.3945 241.289 92.4766 241.289 90.4062C241.289 88.6289 243.008 87.3984 245.488 87.3984C248.418 87.3984 250.781 89.4883 250.801 89.5078C250.957 89.625 251.133 89.6836 251.328 89.6445C251.523 89.625 251.68 89.5078 251.777 89.332L253.359 86.4805C253.496 86.2461 253.457 85.9531 253.262 85.7383C253.184 85.6602 251.074 83.5117 247.109 83.0625V79.625C247.109 79.2734 246.836 79 246.484 79H243.848C243.516 79 243.223 79.2734 243.223 79.625V83.1406C239.141 83.9219 236.328 86.8906 236.328 90.4844C236.328 95.3867 240.703 97.1445 244.219 98.5312C246.855 99.5859 249.16 100.504 249.16 102.379C249.16 104.586 247.09 105.602 245.176 105.602C241.719 105.602 238.984 102.984 238.945 102.965C238.828 102.828 238.652 102.77 238.477 102.789C238.301 102.809 238.125 102.887 238.027 103.023L236.016 105.66C235.84 105.895 235.859 106.227 236.055 106.461C236.152 106.578 238.652 109.313 243.223 109.957V113.375C243.223 113.727 243.516 114 243.848 114H246.484C246.836 114 247.109 113.727 247.109 113.375V109.957C251.25 109.273 254.102 106.129 254.102 102.145Z" fill="#1EA67E"/>
<path d="M329.834 93.528V90.546H349.07V93.528H329.834ZM329.834 101.886V98.904H349.07V101.886H329.834Z" fill="black"/>
<line y1="145" x2="364" y2="145" stroke="#114B5F" stroke-width="2"/>
</svg>
