<svg width="333" height="242" viewBox="0 0 333 242" fill="none" xmlns="http://www.w3.org/2000/svg">
<path fill-rule="evenodd" clip-rule="evenodd" d="M20.5205 0C9.47481 0 0.520508 8.9543 0.520508 20V26.8959C0.520508 36.9694 8.68672 45.1356 18.7603 45.1356V45.1356C28.8338 45.1356 37 53.3018 37 63.3753V241C37 241.552 37.4477 242 38 242H57C57.5523 242 58 241.552 58 241V145.136C58 89.9072 102.772 45.1356 158 45.1356H175C230.228 45.1356 275 89.9071 275 145.136V241C275 241.552 275.448 242 276 242H295C295.552 242 296 241.552 296 241V63.577C296 53.3921 304.256 45.1356 314.441 45.1356V45.1356C324.626 45.1356 332.883 36.8791 332.883 26.6943V20C332.883 8.95431 323.928 0 312.883 0H20.5205Z" fill="#114B5F"/>
<path d="M115.102 15.527H118.342V26.887H125.362V29.527H115.102V15.527ZM128.172 15.527H131.412V29.527H128.172V15.527ZM146.015 22.247C146.815 22.5003 147.441 22.927 147.895 23.527C148.348 24.1136 148.575 24.8403 148.575 25.707C148.575 26.9336 148.095 27.8803 147.135 28.547C146.188 29.2003 144.801 29.527 142.975 29.527H135.735V15.527H142.575C144.281 15.527 145.588 15.8536 146.495 16.507C147.415 17.1603 147.875 18.047 147.875 19.167C147.875 19.847 147.708 20.4536 147.375 20.987C147.055 21.5203 146.601 21.9403 146.015 22.247ZM138.955 17.967V21.267H142.175C142.975 21.267 143.581 21.127 143.995 20.847C144.408 20.567 144.615 20.1536 144.615 19.607C144.615 19.0603 144.408 18.6536 143.995 18.387C143.581 18.107 142.975 17.967 142.175 17.967H138.955ZM142.735 27.087C143.588 27.087 144.228 26.947 144.655 26.667C145.095 26.387 145.315 25.9536 145.315 25.367C145.315 24.207 144.455 23.627 142.735 23.627H138.955V27.087H142.735ZM160.948 29.527L158.248 25.627H158.088H155.268V29.527H152.028V15.527H158.088C159.328 15.527 160.401 15.7336 161.308 16.147C162.228 16.5603 162.934 17.147 163.428 17.907C163.921 18.667 164.168 19.567 164.168 20.607C164.168 21.647 163.914 22.547 163.408 23.307C162.914 24.0536 162.208 24.627 161.288 25.027L164.428 29.527H160.948ZM160.888 20.607C160.888 19.8203 160.634 19.2203 160.128 18.807C159.621 18.3803 158.881 18.167 157.908 18.167H155.268V23.047H157.908C158.881 23.047 159.621 22.8336 160.128 22.407C160.634 21.9803 160.888 21.3803 160.888 20.607ZM178.575 26.927V29.527H167.735V15.527H178.315V18.127H170.955V21.167H177.455V23.687H170.955V26.927H178.575ZM191.073 29.527L188.373 25.627H188.213H185.393V29.527H182.153V15.527H188.213C189.453 15.527 190.526 15.7336 191.433 16.147C192.353 16.5603 193.059 17.147 193.553 17.907C194.046 18.667 194.293 19.567 194.293 20.607C194.293 21.647 194.039 22.547 193.533 23.307C193.039 24.0536 192.333 24.627 191.413 25.027L194.553 29.527H191.073ZM191.013 20.607C191.013 19.8203 190.759 19.2203 190.253 18.807C189.746 18.3803 189.006 18.167 188.033 18.167H185.393V23.047H188.033C189.006 23.047 189.746 22.8336 190.253 22.407C190.759 21.9803 191.013 21.3803 191.013 20.607ZM197.86 15.527H201.1V29.527H197.86V15.527ZM214.642 26.527H208.142L206.902 29.527H203.582L209.822 15.527H213.022L219.282 29.527H215.882L214.642 26.527ZM213.622 24.067L211.402 18.707L209.182 24.067H213.622Z" fill="white"/>
<g clip-path="url(#clip0)">
<path d="M58 66C58 54.9543 66.9543 46 78 46H256C267.046 46 276 54.9543 276 66V242H58V66Z" fill="#1EA67E"/>
<rect x="136.742" y="32" width="13" height="432" rx="6.5" transform="rotate(45 136.742 32)" fill="white"/>
<rect x="170.381" y="32" width="13" height="432" rx="6.5" transform="rotate(45 170.381 32)" fill="white"/>
<rect x="204.02" y="32" width="13" height="432" rx="6.5" transform="rotate(45 204.02 32)" fill="white"/>
<rect x="237.658" y="32" width="13" height="432" rx="6.5" transform="rotate(45 237.658 32)" fill="white"/>
<rect x="271.297" y="32" width="13" height="432" rx="6.5" transform="rotate(45 271.297 32)" fill="white"/>
<rect x="304.936" y="32" width="13" height="432" rx="6.5" transform="rotate(45 304.936 32)" fill="white"/>
<rect x="338.574" y="32" width="13" height="432" rx="6.5" transform="rotate(45 338.574 32)" fill="white"/>
<rect x="372.213" y="32" width="13" height="432" rx="6.5" transform="rotate(45 372.213 32)" fill="white"/>
<rect x="405.852" y="32" width="13" height="432" rx="6.5" transform="rotate(45 405.852 32)" fill="white"/>
<rect x="439.49" y="32" width="13" height="432" rx="6.5" transform="rotate(45 439.49 32)" fill="white"/>
<rect x="473.129" y="32" width="13" height="432" rx="6.5" transform="rotate(45 473.129 32)" fill="white"/>
<rect x="506.768" y="32" width="13" height="432" rx="6.5" transform="rotate(45 506.768 32)" fill="white"/>
<rect x="540.406" y="32" width="13" height="432" rx="6.5" transform="rotate(45 540.406 32)" fill="white"/>
<rect x="574.045" y="32" width="13" height="432" rx="6.5" transform="rotate(45 574.045 32)" fill="white"/>
<rect x="103.104" y="32" width="13" height="84.9989" rx="6.5" transform="rotate(45 103.104 32)" fill="white"/>
</g>
<path d="M185 152C185 140.954 193.954 132 205 132H233C244.046 132 253 140.954 253 152V242H185V152Z" fill="#114B5F"/>
<rect x="235.349" y="176.397" width="6.83873" height="23.2298" rx="3.41936" fill="white"/>
<defs>
<clipPath id="clip0">
<path d="M58 66C58 54.9543 66.9543 46 78 46H256C267.046 46 276 54.9543 276 66V242H58V66Z" fill="white"/>
</clipPath>
</defs>
</svg>
