<svg width="30" height="30" viewBox="0 0 30 30" fill="none" xmlns="http://www.w3.org/2000/svg">
<path fill-rule="evenodd" clip-rule="evenodd" d="M10 2H20C24.4183 2 28 5.58172 28 10V20C28 24.4183 24.4183 28 20 28H10C5.58172 28 2 24.4183 2 20V10C2 5.58172 5.58172 2 10 2ZM0 10C0 4.47715 4.47715 0 10 0H20C25.5228 0 30 4.47715 30 10V20C30 25.5228 25.5228 30 20 30H10C4.47715 30 0 25.5228 0 20V10ZM13.8005 8.10146C13.8005 7.30902 14.4429 6.66663 15.2354 6.66663C16.0278 6.66663 16.6702 7.30902 16.6702 8.10146V14.0403H22.4086C23.1792 14.0403 23.8038 14.6649 23.8038 15.4355C23.8038 16.206 23.1792 16.8307 22.4086 16.8307H16.6702V22.7459C16.6702 23.5383 16.0278 24.1807 15.2354 24.1807C14.4429 24.1807 13.8005 23.5383 13.8005 22.7459V16.8307H8.06176C7.29121 16.8307 6.66656 16.206 6.66656 15.4355C6.66656 14.6649 7.29121 14.0403 8.06176 14.0403H13.8005V8.10146Z" fill="#1EA67E"/>
</svg>
