<svg width="142" height="220" viewBox="0 0 142 220" fill="none" xmlns="http://www.w3.org/2000/svg">
<path fill-rule="evenodd" clip-rule="evenodd" d="M49.845 92.578C50.8061 105.644 112.717 144.111 113.078 145.191C113.239 145.67 106.815 160.834 93.8077 190.681L99.2197 192.776C119.171 161.166 128.634 143.676 127.61 140.308C126.142 135.486 110.13 119.622 79.5737 92.717L49.845 92.578Z" fill="#B28B67"/>
<path fill-rule="evenodd" clip-rule="evenodd" d="M95.232 183.94L104.068 187.144C122.7 166.203 130.003 148.925 128.671 140.122C127.783 134.253 111.827 118.415 80.8009 92.6098L49.2115 92.6098C50.2893 122.868 107.673 145.306 108.441 146.595C109.208 147.885 101.655 160.513 95.232 183.94Z" fill="#2F3676"/>
<path fill-rule="evenodd" clip-rule="evenodd" d="M91.903 189.763C90.7798 191.105 90.0777 192.158 89.7968 192.923C89.4552 193.853 89.1063 195.263 88.7503 197.154C89.7927 197.524 99.1608 200.852 116.855 207.136C118.503 204.897 118.577 203.398 117.077 202.64C115.576 201.882 114.335 201.237 113.353 200.707L102.505 190.04C102.296 189.835 101.959 189.847 101.751 190.068C101.747 190.071 101.744 190.075 101.741 190.079L100.126 191.889C98.4114 192.075 97.0985 192.006 96.1878 191.683C95.4479 191.42 94.5396 190.748 93.4631 189.666L93.4631 189.666C93.05 189.251 92.3749 189.268 91.9553 189.705C91.9372 189.723 91.9198 189.743 91.903 189.763Z" fill="#E4E4E4"/>
<path fill-rule="evenodd" clip-rule="evenodd" d="M56.9631 92.5778L29.3834 158.533L2.27686 214.292H8.67217L78.6415 92.5778H56.9631Z" fill="#997659"/>
<path fill-rule="evenodd" clip-rule="evenodd" d="M1.89442 211.771C1.29814 213.362 1 214.553 1 215.344C1 216.305 1.16012 217.707 1.48035 219.551C2.59531 219.551 12.6157 219.551 31.5415 219.551C32.3227 216.969 31.8718 215.574 30.1887 215.368C28.5056 215.163 27.1075 214.977 25.9942 214.811L12.0221 208.582C11.7532 208.462 11.4381 208.583 11.3183 208.852C11.3162 208.856 11.3142 208.861 11.3123 208.866L10.4142 211.044C8.8561 211.771 7.59 212.135 6.61587 212.135C5.82441 212.135 4.73141 211.815 3.33685 211.176L3.33685 211.176C2.80169 210.93 2.16897 211.165 1.92364 211.7C1.91306 211.723 1.90332 211.747 1.89442 211.771Z" fill="#E4E4E4"/>
<path fill-rule="evenodd" clip-rule="evenodd" d="M4.72461 202.709L18.9351 205.364C29.9226 189.272 75.9056 123.293 80.9472 92.5778H49.3116C32.4751 114.782 15.198 186.352 4.72461 202.709Z" fill="#5C63AB"/>
<path fill-rule="evenodd" clip-rule="evenodd" d="M67.0096 28.5189C65.4175 25.168 64.7412 21.361 66.0084 17.5709C69.6594 6.6504 84.0443 12.6209 85.5058 18.9088C86.9672 25.1968 82.9151 39.3239 78.8776 39.4378C77.2675 39.4833 74.3142 37.7515 71.5767 34.9602L69.7378 50.3545L57.6359 47.5115L67.0096 28.5189Z" fill="#B28B67"/>
<path fill-rule="evenodd" clip-rule="evenodd" d="M85.9458 21.7591C86.011 20.9998 85.9207 20.1175 85.8573 19.3691C85.7754 18.4042 85.5119 17.4888 85.1893 16.6084C84.5821 14.9507 83.7452 13.3846 82.7309 12.0082C80.8781 9.49412 78.1714 7.65151 75.1324 7.31116C73.598 7.1393 72.0066 7.36986 70.5319 8.03492C69.1995 8.63583 67.8045 9.6561 66.3435 9.40337C64.7539 9.1283 63.6798 7.38188 62.6476 6.2149C61.4837 4.89924 60.1616 3.82698 58.5795 3.15425C55.9292 2.02743 53.084 2.35488 50.5835 4.20641C47.9228 6.17671 45.5227 9.42602 46.0217 13.0009C46.1145 13.6655 46.3026 14.252 46.6519 14.7845C46.9723 15.2728 47.5076 15.839 47.519 16.4993C47.5309 17.2011 46.7731 17.9213 46.4113 18.4653C45.893 19.2448 45.4176 20.0794 45.2679 21.0257C45.0222 22.5798 45.59 24.2557 46.3262 25.4923C47.0755 26.7507 48.1689 27.6313 49.4275 28.218C50.2679 28.6098 51.1484 28.9258 52.0665 29.0743C52.5223 29.148 52.9493 29.1163 53.4083 29.1198C53.8547 29.1231 54.0611 29.2932 54.3584 29.6137C55.7393 31.1027 57.4168 31.9526 59.376 32.2498C61.0295 32.5006 62.9971 32.549 64.6062 31.7384C66.3933 30.8382 66.8066 29.1055 66.9343 27.179C67.2526 27.4506 68.2347 27.8069 67.8185 26.9283C67.6536 26.5804 67.2317 26.3537 66.9683 26.1092C66.6617 25.8245 66.3645 25.4803 66.17 25.0891C65.3847 23.5095 67.2013 21.1132 68.7235 21.0113C70.985 20.8599 70.6823 23.9818 71.9776 25.1184C72.7223 25.772 73.7783 25.3756 74.5824 24.9052C75.6596 24.275 76.5317 23.3072 77.3286 22.3007C77.9849 21.4718 78.6155 20.6229 79.2787 19.8005C79.5883 19.4165 80.5902 18.3611 80.3693 17.7901C81.9472 17.8455 83.4554 18.8792 84.5342 20.0193C84.98 20.4907 85.29 20.9668 85.4194 21.6412C85.4471 21.7857 85.4809 22.2037 85.6436 22.2594C85.9466 22.3633 85.9294 21.9499 85.9458 21.7591Z" fill="#191847"/>
<path d="M53.7593 132.892L50.2718 163.501C50.2093 164.05 49.7138 164.444 49.1651 164.381L5.6812 159.427L9.28183 127.824L53.7593 132.892Z" fill="#00739B"/>
<path d="M53.7593 132.892L50.9366 157.667L46.1021 157.116L41.5753 163.516L5.6812 159.427L9.28183 127.824L53.7593 132.892Z" fill="#1EA67E"/>
<path d="M51.4465 126.7C53.0927 126.888 54.2752 128.374 54.0876 130.02L53.7605 132.892L7.33226 127.602L7.99904 121.75L51.4465 126.7Z" fill="#114B5F"/>
<path d="M40.2346 134.908C41.8808 135.096 43.0633 136.582 42.8757 138.228L40.726 157.096L37.2146 156.696L39.704 134.847L40.2346 134.908Z" fill="#114B5F"/>
<path d="M33.9924 134.197C35.6386 134.384 36.8211 135.871 36.6335 137.517L34.4838 156.385L30.9724 155.985L33.4618 134.136L33.9924 134.197Z" fill="#114B5F"/>
<path d="M7.6083 121.267C8.90115 121.414 9.82981 122.582 9.68251 123.874L5.6818 158.988V158.988C3.09609 158.694 1.23879 156.359 1.53339 153.773L5.00067 123.341C5.14797 122.048 6.31545 121.119 7.6083 121.267V121.267Z" fill="#00739B"/>
<path fill-rule="evenodd" clip-rule="evenodd" d="M100.696 87.8842L117.454 100.613C122.039 101.929 125.86 103.536 128.917 105.433C129.635 106.109 130.493 107.469 127.468 107.187C124.444 106.904 121.25 106.744 120.813 107.768C120.376 108.792 122.186 110.055 121.315 111.432C120.735 112.35 118.117 109.981 113.463 104.325L96.7681 97.0877L100.696 87.8842ZM35.4571 87.2457L46.5865 87.4716C39.3027 109.499 36.4032 118.039 35.2362 129.222C34.9948 131.536 33.0877 136.526 28.3108 133.471C27.8212 133.158 26.0631 130.389 26.3951 128.075C27.1703 122.676 27.5341 122.28 28.3259 120.747C29.7212 118.047 31.5321 107.72 35.4571 87.2457Z" fill="#B28B67"/>
<path fill-rule="evenodd" clip-rule="evenodd" d="M67.9286 41.3083L72.5463 40.5965C89.3513 55.5851 95.8404 83.958 116.496 99.27L111.342 105.414C75.1079 100.337 66.7476 65.7217 67.9286 41.3083Z" fill="#E87613"/>
<path fill-rule="evenodd" clip-rule="evenodd" d="M46.7726 98.6276C65.2187 98.9295 78.7873 99.1516 87.4783 99.2939C89.3384 99.3243 89.0377 96.6395 88.794 95.2832C85.9809 79.6299 74.1798 62.6129 74.5928 40.4032L62.8855 38.3744C52.8841 53.7956 49.1689 72.923 46.7726 98.6276Z" fill="#DDE3E9"/>
<path fill-rule="evenodd" clip-rule="evenodd" d="M47.9268 53.4271C46.2312 52.9103 44.9024 51.748 43.9405 49.9401C39.7941 42.1467 41.4224 37.9199 46.0331 36.5972C50.6438 35.2746 54.6789 38.2206 61.9835 38.3402C62.3808 38.3467 62.7442 38.3775 63.0738 38.4326L66.7443 38.7019C76.624 74.5215 79.0894 98.3522 74.1405 110.194L42.113 109.67C40.1333 114.053 38.2484 117.738 36.4583 120.723L27.7314 120.581C27.4026 94.0719 34.1344 71.6875 47.9268 53.4271Z" fill="#FF9B21"/>
<path fill-rule="evenodd" clip-rule="evenodd" d="M49.4447 91.4572C50.2958 99.8829 51.8198 106.013 54.0166 109.847L42.1288 109.652C44.4385 104.539 46.8771 98.4735 49.4447 91.4572V91.4572Z" fill="black" fill-opacity="0.1"/>
</svg>
